# AST/ASF file generated using VICON BodyLanguage
# -----------------------------------------------
:version 1.10
:name VICON
:units
  mass 1.0
  length 0.45
  angle deg
:documentation
   .ast/.asf automatically generated from VICON data using
   VICON BodyBuilder and BodyLanguage model FoxedUp or BRILLIANT.MOD
:root
   order TX TY TZ RX RY RZ
   axis XYZ
   position 0 0 0  
   orientation 0 0 0 
:bonedata
  begin
     id 1 
     name lhipjoint
     direction 0.64773 -0.699417 0.302095 
     length 2.48597 
     axis 0 0 0  XYZ
  end
  begin
     id 2 
     name lfemur
     direction 0.34202 -0.939693 0  
     length 6.71947  
     axis 0 0 20  XYZ
    dof rx ry rz
    limits (-160.0 20.0)
           (-70.0 70.0)
           (-60.0 70.0)
  end
  begin
     id 3 
     name ltibia
     direction 0.34202 -0.939693 0   
     length 8.08777   
     axis 0 0 20   XYZ
    dof rx
    limits (-10.0 170.0)
  end
  begin
     id 4 
     name lfoot
     direction 0.0808503 -0.222134 0.971658   
     length 2.08264   
     axis -90 7.62852e-016 20   XYZ
    dof rx rz
    limits (-45.0 90.0)
           (-70.0 20.0)
  end
  begin
     id 5 
     name ltoes
     direction 1.53502e-011 -4.22007e-011 1   
     length 1.04662   
     axis -90 7.62852e-016 20   XYZ
    dof rx
    limits (-90.0 20.0)
  end
  begin
     id 6 
     name rhipjoint
     direction -0.610924 -0.726792 0.313919   
     length 2.39233  
     axis 0 0 0  XYZ 
  end
  begin
     id 7 
     name rfemur
     direction -0.34202 -0.939693 0   
     length 6.96955   
     axis 0 0 -20   XYZ
    dof rx ry rz
    limits (-160.0 20.0)
           (-70.0 70.0)
           (-70.0 60.0)
  end
  begin
     id 8 
     name rtibia
     direction -0.34202 -0.939693 0   
     length 8.19584   
     axis 0 0 -20   XYZ
    dof rx
    limits (-10.0 170.0)
 end
 begin
     id 9 
     name rfoot
     direction -0.077777 -0.213691 0.9738   
     length 2.07539  
     axis -90 -7.62852e-016 -20   XYZ
    dof rx rz
    limits (-45.0 90.0)
           (-20.0 70.0)
  end
  begin
     id 10 
     name rtoes
     direction -1.53558e-011 -4.22006e-011 1   
     length 1.04381   
     axis -90 -7.62852e-016 -20   XYZ
    dof rx
    limits (-90.0 20.0)
  end
  begin
     id 11 
     name lowerback
     direction -0.00971646 0.996074 0.0879841   
     length 1.67643   
     axis 0 0 0   XYZ
    dof rx ry rz
    limits (-20.0 45.0)
           (-30.0 30.0)
           (-30.0 30.0)
  end
  begin
     id 12 
     name upperback
     direction 0.0127391 0.991676 0.128127   
     length 1.63741   
     axis 0 0 0   XYZ
    dof rx ry rz
    limits (-20.0 45.0)
           (-30.0 30.0)
           (-30.0 30.0)
  end
  begin
     id 13 
     name thorax
     direction 0.0167583 0.996049 0.0872067   
     length 1.65931   
     axis 0 0 0   XYZ
    dof rx ry rz
    limits (-20.0 45.0)
           (-30.0 30.0)
           (-30.0 30.0)
  end
  begin
     id 14 
     name lowerneck
     direction -0.0317829 0.998312 0.0486079   
     length 1.79021   
     axis 0 0 0   XYZ
    dof rx ry rz
    limits (-20.0 45.0)
           (-30.0 30.0)
           (-30.0 30.0)
  end
  begin
     id 15 
     name upperneck
     direction 0.0896851 0.972452 -0.215159   
     length 1.78797   
     axis 0 0 0   XYZ
    dof rx ry rz
    limits (-20.0 45.0)
           (-30.0 30.0)
           (-30.0 30.0)
  end
  begin
     id 16
     name head
     direction 0.0310949 0.996503 -0.0775582  
     length 1.81549  
     axis 0 0 0   XYZ
    dof rx ry rz
    limits (-20.0 45.0)
           (-30.0 30.0)
           (-30.0 30.0)
  end
  begin
     id 17 
     name lclavicle
     direction 0.853638 0.502051 -0.138733  
     length 3.31627  
     axis 0 0 0   XYZ
    dof ry rz
    limits (-20.0 10.0)
           (0.0 20.0)
  end
  begin
     id 18 
     name lhumerus
     direction 1 -4.48962e-011 -1.41788e-018   
     length 5.54893   
     axis 180 -30 -90   XYZ
    dof rx ry rz
    limits (-60.0 90.0)
           (-90.0 90.0)
           (-90.0 90.0)
  end
  begin
     id 19
     name lradius
     direction 1 -4.48962e-011 -4.95754e-027   
     length 3.02898   
     axis 180 -30 -90   XYZ
    dof rx
    limits (-10.0 170.0)
  end
  begin
     id 20
     name lwrist
     direction 1 -4.48952e-011 -1.03764e-026   
     length 1.51449   
     axis 9.09556e-015 90 90   XYZ
    dof ry
    limits (-180.0 0.0)
 end
  begin
     id 21 
     name lhand
     direction 1 -4.4902e-011 -2.07528e-026   
     length 0.640951   
     axis 1.3242e-014 90 90   XYZ
    dof rx rz
    limits (-90.0 90.0)
           (-45.0 45.0)
  end
  begin
     id 22 
     name lfingers
     direction 1 -4.49014e-011 -4.15056e-026   
     length 0.516751   
     axis 2.64841e-014 90 90   XYZ
    dof rx
    limits (0.0 90.0)
  end
  begin
     id 23
     name lthumb
     direction 0.707107 -6.35008e-011 0.707107   
     length 0.741954   
     axis -90 45 2.85299e-015   XYZ
    dof rx rz
    limits (-45.0 45.0)
           (-45.0 45.0)
  end
  begin
     id 24 
     name rclavicle
     direction -0.888531 0.455324 -0.0565039   
     length 3.20126  
     axis 0 0 0   XYZ 
    dof ry rz
    limits (-10.0 20.0)
           (-20.0 0.0)
  end
  begin
     id 25 
     name rhumerus
     direction -1 -4.48946e-011 -8.98298e-028  
     length 5.3519   
     axis 180 30 90   XYZ
    dof rx ry rz
    limits (-90.0 60.0)
           (-90.0 90.0)
           (-90.0 90.0)
  end
  begin
     id 26 
     name rradius
     direction -1 -4.4899e-011 -3.18779e-027   
     length 3.02531   
     axis 180 30 90   XYZ
    dof rx
    limits (-10.0 170.0)
  end
  begin
     id 27 
     name rwrist
     direction -1 -4.4897e-011 -1.03764e-026   
     length 1.51266   
     axis 9.09556e-015 -90 -90   XYZ
    dof ry
    limits (-180.0 0.0)
  end
  begin
     id 28
     name rhand
     direction -1 -4.48941e-011 -2.07528e-026   
     length 0.78389   
     axis 1.3242e-014 -90 -90   XYZ
    dof rx rz
    limits (-90.0 90.0)
           (-45.0 45.0)
  end
  begin
     id 29
     name rfingers
     direction -1 -4.49012e-011 -4.15056e-026   
     length 0.631992   
     axis 2.64841e-014 -90 -90   XYZ
    dof rx
    limits (0.0 90.0)
  end
  begin
     id 30
     name rthumb
     direction -0.707107 -6.3496e-011 0.707107   
     length 0.907418   
     axis -90 -45 -2.85299e-015   XYZ
    dof rx rz
    limits (-45.0 45.0)
           (-45.0 45.0)
  end
:hierarchy
  begin
    root lhipjoint rhipjoint lowerback
    lhipjoint lfemur
    lfemur ltibia
    ltibia lfoot
    lfoot ltoes
    rhipjoint rfemur
    rfemur rtibia
    rtibia rfoot
    rfoot rtoes
    lowerback upperback
    upperback thorax
    thorax lowerneck lclavicle rclavicle
    lowerneck upperneck
    upperneck head
    lclavicle lhumerus
    lhumerus lradius
    lradius lwrist
    lwrist lhand lthumb
    lhand lfingers
    rclavicle rhumerus
    rhumerus rradius
    rradius rwrist
    rwrist rhand rthumb
    rhand rfingers
  end

#!OML:ASF E:\Style3\Style3.ASF
:FULLY-SPECIFIED
:DEGREES
668
root -0.451969 17.8712 0.768186 -102.875 86.7192 -114.88
lowerback -4.00867 1.74542 -1.12155
upperback -2.82582 2.41176 -0.840286
thorax -0.663417 1.23797 -0.153033
lowerneck 7.01993 2.59125 -1.1323
upperneck -7.40153 3.28092 -1.06611
head -3.64661 1.71133 -0.32762
rclavicle -2.18663e-015 7.95139e-015
rhumerus 29.08 22.6947 -42.4316
rradius 140.364
rwrist -53.9899
rhand 3.2633 15.6336
rfingers 7.12502
rthumb 28.7121 -12.1793
lclavicle -2.18663e-015 7.95139e-015
lhumerus -20.4266 -30.1107 90.7685
lradius 129.947
lwrist 18.0026
lhand -35.9859 4.21665
lfingers 7.12502
lthumb -9.09624 34.0005
rfemur -10.4747 12.5842 16.7018
rtibia 6.72261
rfoot -7.1052 -19.3907
rtoes -21.3612
lfemur 0 0 0
ltibia 0
lfoot 0 0
ltoes 0
669
root -0.449314 17.8712 0.76807 -102.732 86.7872 -114.721
lowerback -4.01266 1.58092 -1.24777
upperback -2.85563 2.19672 -0.762677
thorax -0.698426 1.13322 -0.0106528
lowerneck 6.97174 1.89193 -1.60761
upperneck -7.37188 2.25888 -1.53626
head -3.62768 1.24141 -0.343488
rclavicle 1.20762e-014 1.51076e-014
rhumerus 29.6425 24.2834 -42.1699
rradius 140.046
rwrist -50.7759
rhand 2.96549 16.1892
rfingers 7.12502
rthumb 28.4276 -11.6716
lclavicle 1.20762e-014 1.51076e-014
lhumerus -20.6019 -29.6759 90.7234
lradius 129.976
lwrist 17.928
lhand -36.0222 4.06448
lfingers 7.12502
lthumb -9.13123 33.8468
rfemur -10.5495 12.6102 16.6411
rtibia 6.90385
rfoot -7.19491 -19.419
rtoes -21.1502
lfemur 0 0 0
ltibia 0
lfoot 0 0
ltoes 0
670
root -0.44621 17.8699 0.765556 -102.245 86.8203 -114.254
lowerback -4.08859 1.4417 -1.25974
upperback -2.92227 2.01412 -0.710161
thorax -0.725184 1.04367 0.0448809
lowerneck 6.98089 1.1584 -2.01414
upperneck -7.19627 1.19451 -2.09495
head -3.56801 0.751149 -0.39829
rclavicle 3.37934e-015 7.95139e-016
rhumerus 30.1405 25.721 -41.9846
rradius 139.663
rwrist -47.6259
rhand 2.88262 16.5377
rfingers 7.12502
rthumb 28.3484 -11.3362
lclavicle 3.37934e-015 7.95139e-016
lhumerus -20.7569 -29.3198 90.6763
lradius 129.976
lwrist 17.8762
lhand -36.065 3.97646
lfingers 7.12502
lthumb -9.1725 33.757
rfemur -10.6739 12.6402 16.5956
rtibia 7.09152
rfoot -7.15824 -19.4617
rtoes -21.5304
lfemur 0 0 0
ltibia 0
lfoot 0 0
ltoes 0
671
root -0.442134 17.8698 0.763894 -102.073 86.9716 -114.084
lowerback -4.17465 1.30709 -1.41102
upperback -2.99888 1.84276 -0.686175
thorax -0.75984 0.961955 0.149351
lowerneck 7.14666 0.471826 -2.55819
upperneck -7.07808 0.184984 -2.54082
head -3.56153 0.2889 -0.396663
rclavicle -9.93923e-016 0
rhumerus 30.5523 26.9019 -41.7596
rradius 139.295
rwrist -44.3889
rhand 2.93188 17.0752
rfingers 7.12502
rthumb 28.3955 -10.7909
lclavicle -9.93923e-016 0
lhumerus -20.8969 -28.9586 90.6518
lradius 129.962
lwrist 17.8093
lhand -36.0995 3.90699
lfingers 7.12502
lthumb -9.20584 33.686
rfemur -10.7496 12.6779 16.4248
rtibia 7.22526
rfoot -7.05279 -19.5083
rtoes -22.2539
lfemur 0 0 0
ltibia 0
lfoot 0 0
ltoes 0
672
root -0.439263 17.8712 0.762654 -101.993 87.0784 -113.977
lowerback -4.17734 1.19354 -1.53692
upperback -3.02659 1.69587 -0.647425
thorax -0.789834 0.89128 0.254163
lowerneck 7.21415 -0.236584 -3.01088
upperneck -7.06484 -0.849464 -3.10524
head -3.57285 -0.179639 -0.448877
rclavicle -9.83984e-015 -5.56597e-015
rhumerus 30.8928 27.9621 -41.4341
rradius 138.936
rwrist -40.6958
rhand 2.95821 18.0423
rfingers 7.12502
rthumb 28.4206 -9.81964
lclavicle -9.83984e-015 -5.56597e-015
lhumerus -20.8942 -28.6738 90.6041
lradius 129.909
lwrist 17.6767
lhand -36.1409 3.856
lfingers 7.12502
lthumb -9.24578 33.6333
rfemur -10.7598 12.7056 16.3112
rtibia 7.32736
rfoot -7.20497 -19.4936
rtoes -22.1324
lfemur 0 0 0
ltibia 0
lfoot 0 0
ltoes 0
673
root -0.438198 17.8721 0.761164 -101.967 87.1099 -113.964
lowerback -4.19356 1.03845 -1.60785
upperback -3.05325 1.49206 -0.563244
thorax -0.809109 0.791607 0.37334
lowerneck 7.09131 -0.901009 -3.42707
upperneck -6.87668 -1.80796 -3.7537
head -3.48873 -0.613 -0.539555
rclavicle -1.13307e-014 3.97569e-015
rhumerus 31.4305 29.1165 -41.0455
rradius 138.523
rwrist -36.7656
rhand 2.81213 18.9324
rfingers 7.12502
rthumb 28.281 -8.95274
lclavicle -1.13307e-014 3.97569e-015
lhumerus -20.8873 -28.2979 90.5306
lradius 129.878
lwrist 17.496
lhand -36.0433 3.90992
lfingers 7.12502
lthumb -9.15154 33.6914
rfemur -10.832 12.7115 16.2685
rtibia 7.45443
rfoot -7.38565 -19.4436
rtoes -21.6224
lfemur 0 0 0
ltibia 0
lfoot 0 0
ltoes 0
674
root -0.436623 17.8725 0.76114 -102.122 87.1339 -114.11
lowerback -4.23528 0.814419 -1.73512
upperback -3.09475 1.19907 -0.410307
thorax -0.829207 0.649112 0.591896
lowerneck 7.10131 -1.49403 -4.00026
upperneck -6.70824 -2.68564 -4.37401
head -3.43762 -1.00129 -0.598868
rclavicle -7.15625e-015 5.56597e-015
rhumerus 32.2928 30.5701 -40.4786
rradius 137.982
rwrist -32.3439
rhand 2.32745 19.7524
rfingers 7.12502
rthumb 27.8177 -8.20854
lclavicle -7.15625e-015 5.56597e-015
lhumerus -21.0879 -27.7612 90.5625
lradius 129.939
lwrist 17.3077
lhand -36.0517 4.19076
lfingers 7.12502
lthumb -9.15964 33.9718
rfemur -10.8738 12.7106 16.2427
rtibia 7.55291
rfoot -7.40221 -19.446
rtoes -21.4453
lfemur 0 0 0
ltibia 0
lfoot 0 0
ltoes 0
675
root -0.434204 17.8718 0.760131 -101.903 87.1619 -113.886
lowerback -4.28988 0.658227 -1.79284
upperback -3.15236 0.995112 -0.33463
thorax -0.855713 0.549961 0.69526
lowerneck 7.16298 -2.13395 -4.43743
upperneck -6.54095 -3.61376 -5.01911
head -3.40136 -1.41666 -0.688063
rclavicle -1.09332e-015 -3.18055e-015
rhumerus 33.0009 31.9275 -40.0174
rradius 137.33
rwrist -27.4069
rhand 1.58734 20.7481
rfingers 7.12502
rthumb 27.1099 -7.32527
lclavicle -1.09332e-015 -3.18055e-015
lhumerus -21.253 -27.404 90.5274
lradius 129.992
lwrist 17.159
lhand -36.0577 4.41949
lfingers 7.12502
lthumb -9.16549 34.2003
rfemur -10.8902 12.7282 16.215
rtibia 7.59183
rfoot -7.35171 -19.4814
rtoes -21.5013
lfemur 0 0 0
ltibia 0
lfoot 0 0
ltoes 0
676
root -0.432808 17.871 0.759461 -101.262 87.1671 -113.198
lowerback -4.28557 0.565768 -1.77435
upperback -3.20178 0.871908 -0.315793
thorax -0.905799 0.489438 0.699581
lowerneck 7.06599 -2.79548 -4.77643
upperneck -6.10803 -4.53046 -5.6963
head -3.2481 -1.84162 -0.808589
rclavicle -4.91992e-015 -9.54166e-015
rhumerus 33.4909 33.1477 -39.6282
rradius 136.727
rwrist -21.9707
rhand 0.605589 21.7374
rfingers 7.12502
rthumb 26.1703 -6.47871
lclavicle -4.91992e-015 -9.54166e-015
lhumerus -21.3385 -27.2175 90.4684
lradius 129.965
lwrist 16.9941
lhand -35.7988 4.62297
lfingers 7.12502
lthumb -8.9157 34.4146
rfemur -10.8537 12.7673 16.2311
rtibia 7.61046
rfoot -7.36454 -19.513
rtoes -21.4502
lfemur 0 0 0
ltibia 0
lfoot 0 0
ltoes 0
677
root -0.432776 17.8697 0.757934 -100.045 87.1179 -111.972
lowerback -4.34166 0.485218 -1.69526
upperback -3.24972 0.764296 -0.288878
thorax -0.920333 0.435613 0.679579
lowerneck 7.05879 -3.41018 -5.06812
upperneck -5.66487 -5.37967 -6.4176
head -3.11603 -2.23368 -0.955717
rclavicle -5.61567e-015 2.38542e-015
rhumerus 33.931 34.3787 -39.228
rradius 136.098
rwrist -16.0181
rhand -0.796304 22.8274
rfingers 7.12502
rthumb 24.8274 -5.58071
lclavicle -5.61567e-015 2.38542e-015
lhumerus -21.3634 -27.0314 90.3848
lradius 129.954
lwrist 16.9838
lhand -35.4093 4.69282
lfingers 7.12502
lthumb -8.5398 34.5001
rfemur -10.8538 12.8206 16.2962
rtibia 7.60975
rfoot -7.5289 -19.517
rtoes -20.6895
lfemur 0 0 0
ltibia 0
lfoot 0 0
ltoes 0
678
root -0.432087 17.87 0.758135 -99.4327 87.0998 -111.361
lowerback -4.41323 0.389245 -1.72803
upperback -3.30431 0.640379 -0.234809
thorax -0.934624 0.375944 0.749518
lowerneck 7.12021 -3.9407 -5.45124
upperneck -5.22224 -6.11758 -7.06504
head -2.99502 -2.57249 -1.06852
rclavicle -5.44173e-015 -1.19271e-014
rhumerus 34.2471 35.5061 -38.966
rradius 135.365
rwrist -9.77176
rhand -2.16723 24.1121
rfingers 7.12502
rthumb 23.513 -4.47079
lclavicle -5.44173e-015 -1.19271e-014
lhumerus -21.3784 -26.7952 90.368
lradius 129.988
lwrist 16.964
lhand -35.7489 4.31432
lfingers 7.12502
lthumb -8.86752 34.108
rfemur -10.8538 12.8509 16.3302
rtibia 7.59772
rfoot -7.56025 -19.519
rtoes -20.6751
lfemur 0 0 0
ltibia 0
lfoot 0 0
ltoes 0
679
root -0.424325 17.8712 0.755684 -99.011 87.1249 -110.908
lowerback -4.54996 0.175158 -1.82066
upperback -3.34149 0.362603 -0.0793382
thorax -0.891352 0.240585 0.951952
lowerneck 6.96827 -4.2971 -6.1226
upperneck -4.56541 -6.59714 -7.72115
head -2.75034 -2.7942 -1.15457
rclavicle 1.56543e-015 5.56597e-015
rhumerus 34.827 36.7687 -38.6251
rradius 134.516
rwrist -3.0312
rhand -3.8911 25.2959
rfingers 7.12502
rthumb 21.8585 -3.48944
lclavicle 1.56543e-015 5.56597e-015
lhumerus -21.4809 -26.228 90.3795
lradius 130.051
lwrist 16.9103
lhand -36.0328 4.01392
lfingers 7.12502
lthumb -9.1415 33.7958
rfemur -10.7667 12.8786 16.3046
rtibia 7.54463
rfoot -7.36052 -19.5544
rtoes -21.8958
lfemur 0 0 0
ltibia 0
lfoot 0 0
ltoes 0
680
root -0.411259 17.8701 0.751945 -98.3222 87.192 -110.167
lowerback -4.70459 -0.129685 -1.96571
upperback -3.41196 -0.0328634 0.142217
thorax -0.866148 0.0487294 1.24616
lowerneck 6.61376 -4.47253 -7.00936
upperneck -3.53701 -6.77381 -8.36434
head -2.33344 -2.89456 -1.22278
rclavicle 2.23633e-016 4.77083e-015
rhumerus 35.7013 38.272 -38.1687
rradius 133.42
rwrist 4.28913
rhand -6.38303 26.6848
rfingers 7.12502
rthumb 19.4641 -2.36093
lclavicle 2.23633e-016 4.77083e-015
lhumerus -21.7767 -25.3934 90.4567
lradius 130.111
lwrist 16.6546
lhand -36.0245 3.91172
lfingers 7.12502
lthumb -9.13341 33.6939
rfemur -10.6403 12.9247 16.2268
rtibia 7.51243
rfoot -7.32204 -19.5468
rtoes -22.1538
lfemur 0 0 0
ltibia 0
lfoot 0 0
ltoes 0
